<mxfile host="app.diagrams.net" modified="2023-04-22T18:18:20.736Z" agent="Mozilla/5.0 (Windows NT 10.0; Win64; x64) AppleWebKit/537.36 (KHTML, like Gecko) Chrome/112.0.0.0 Safari/537.36" etag="RO304W8zYPNXpRWJZPI6" version="21.2.1" type="github">
  <diagram name="Page-1" id="t7XPDs8itLltNpDQaYjU">
    <mxGraphModel dx="1948" dy="1150" grid="1" gridSize="10" guides="1" tooltips="1" connect="1" arrows="1" fold="1" page="1" pageScale="1" pageWidth="850" pageHeight="1100" math="0" shadow="0">
      <root>
        <mxCell id="0" />
        <mxCell id="1" parent="0" />
        <mxCell id="3V-cjrJp8K7K4NnzKLsq-5" value="Account" style="swimlane;fontStyle=0;childLayout=stackLayout;horizontal=1;startSize=26;fillColor=none;horizontalStack=0;resizeParent=1;resizeParentMax=0;resizeLast=0;collapsible=1;marginBottom=0;whiteSpace=wrap;html=1;" vertex="1" collapsed="1" parent="1">
          <mxGeometry x="262" y="314" width="80" height="30" as="geometry">
            <mxRectangle x="120" y="120" width="140" height="104" as="alternateBounds" />
          </mxGeometry>
        </mxCell>
        <mxCell id="3V-cjrJp8K7K4NnzKLsq-6" value="+ field: type" style="text;strokeColor=none;fillColor=none;align=left;verticalAlign=top;spacingLeft=4;spacingRight=4;overflow=hidden;rotatable=0;points=[[0,0.5],[1,0.5]];portConstraint=eastwest;whiteSpace=wrap;html=1;" vertex="1" parent="3V-cjrJp8K7K4NnzKLsq-5">
          <mxGeometry y="26" width="140" height="26" as="geometry" />
        </mxCell>
        <mxCell id="3V-cjrJp8K7K4NnzKLsq-7" value="+ field: type" style="text;strokeColor=none;fillColor=none;align=left;verticalAlign=top;spacingLeft=4;spacingRight=4;overflow=hidden;rotatable=0;points=[[0,0.5],[1,0.5]];portConstraint=eastwest;whiteSpace=wrap;html=1;" vertex="1" parent="3V-cjrJp8K7K4NnzKLsq-5">
          <mxGeometry y="52" width="140" height="26" as="geometry" />
        </mxCell>
        <mxCell id="3V-cjrJp8K7K4NnzKLsq-8" value="+ field: type" style="text;strokeColor=none;fillColor=none;align=left;verticalAlign=top;spacingLeft=4;spacingRight=4;overflow=hidden;rotatable=0;points=[[0,0.5],[1,0.5]];portConstraint=eastwest;whiteSpace=wrap;html=1;" vertex="1" parent="3V-cjrJp8K7K4NnzKLsq-5">
          <mxGeometry y="78" width="140" height="26" as="geometry" />
        </mxCell>
        <mxCell id="3V-cjrJp8K7K4NnzKLsq-9" value="User" style="swimlane;fontStyle=0;childLayout=stackLayout;horizontal=1;startSize=26;fillColor=none;horizontalStack=0;resizeParent=1;resizeParentMax=0;resizeLast=0;collapsible=1;marginBottom=0;whiteSpace=wrap;html=1;" vertex="1" collapsed="1" parent="1">
          <mxGeometry x="402" y="314" width="70" height="30" as="geometry">
            <mxRectangle x="360" y="120" width="140" height="104" as="alternateBounds" />
          </mxGeometry>
        </mxCell>
        <mxCell id="3V-cjrJp8K7K4NnzKLsq-10" value="+ field: type" style="text;strokeColor=none;fillColor=none;align=left;verticalAlign=top;spacingLeft=4;spacingRight=4;overflow=hidden;rotatable=0;points=[[0,0.5],[1,0.5]];portConstraint=eastwest;whiteSpace=wrap;html=1;" vertex="1" parent="3V-cjrJp8K7K4NnzKLsq-9">
          <mxGeometry y="26" width="140" height="26" as="geometry" />
        </mxCell>
        <mxCell id="3V-cjrJp8K7K4NnzKLsq-11" value="+ field: type" style="text;strokeColor=none;fillColor=none;align=left;verticalAlign=top;spacingLeft=4;spacingRight=4;overflow=hidden;rotatable=0;points=[[0,0.5],[1,0.5]];portConstraint=eastwest;whiteSpace=wrap;html=1;" vertex="1" parent="3V-cjrJp8K7K4NnzKLsq-9">
          <mxGeometry y="52" width="140" height="26" as="geometry" />
        </mxCell>
        <mxCell id="3V-cjrJp8K7K4NnzKLsq-12" value="+ field: type" style="text;strokeColor=none;fillColor=none;align=left;verticalAlign=top;spacingLeft=4;spacingRight=4;overflow=hidden;rotatable=0;points=[[0,0.5],[1,0.5]];portConstraint=eastwest;whiteSpace=wrap;html=1;" vertex="1" parent="3V-cjrJp8K7K4NnzKLsq-9">
          <mxGeometry y="78" width="140" height="26" as="geometry" />
        </mxCell>
        <mxCell id="3V-cjrJp8K7K4NnzKLsq-13" value="" style="endArrow=diamondThin;endFill=1;endSize=24;html=1;rounded=0;entryX=0;entryY=0.5;entryDx=0;entryDy=0;exitX=1;exitY=0.5;exitDx=0;exitDy=0;" edge="1" parent="1" source="3V-cjrJp8K7K4NnzKLsq-5" target="3V-cjrJp8K7K4NnzKLsq-9">
          <mxGeometry width="160" relative="1" as="geometry">
            <mxPoint x="232" y="378.5" as="sourcePoint" />
            <mxPoint x="392" y="378.5" as="targetPoint" />
          </mxGeometry>
        </mxCell>
        <mxCell id="3V-cjrJp8K7K4NnzKLsq-14" value="Extends" style="endArrow=block;endSize=16;endFill=0;html=1;rounded=0;entryX=1;entryY=0;entryDx=0;entryDy=0;exitX=-0.023;exitY=0.146;exitDx=0;exitDy=0;exitPerimeter=0;" edge="1" parent="1" source="3V-cjrJp8K7K4NnzKLsq-17" target="3V-cjrJp8K7K4NnzKLsq-9">
          <mxGeometry y="10" width="160" relative="1" as="geometry">
            <mxPoint x="542" y="304" as="sourcePoint" />
            <mxPoint x="542" y="434" as="targetPoint" />
            <mxPoint as="offset" />
          </mxGeometry>
        </mxCell>
        <mxCell id="3V-cjrJp8K7K4NnzKLsq-15" value="Admin" style="swimlane;fontStyle=0;childLayout=stackLayout;horizontal=1;startSize=26;fillColor=none;horizontalStack=0;resizeParent=1;resizeParentMax=0;resizeLast=0;collapsible=1;marginBottom=0;whiteSpace=wrap;html=1;" vertex="1" collapsed="1" parent="1">
          <mxGeometry x="552" y="264" width="70" height="30" as="geometry">
            <mxRectangle x="520" y="20" width="140" height="104" as="alternateBounds" />
          </mxGeometry>
        </mxCell>
        <mxCell id="3V-cjrJp8K7K4NnzKLsq-16" value="+ field: type" style="text;strokeColor=none;fillColor=none;align=left;verticalAlign=top;spacingLeft=4;spacingRight=4;overflow=hidden;rotatable=0;points=[[0,0.5],[1,0.5]];portConstraint=eastwest;whiteSpace=wrap;html=1;" vertex="1" parent="3V-cjrJp8K7K4NnzKLsq-15">
          <mxGeometry y="26" width="140" height="26" as="geometry" />
        </mxCell>
        <mxCell id="3V-cjrJp8K7K4NnzKLsq-17" value="+ field: type" style="text;strokeColor=none;fillColor=none;align=left;verticalAlign=top;spacingLeft=4;spacingRight=4;overflow=hidden;rotatable=0;points=[[0,0.5],[1,0.5]];portConstraint=eastwest;whiteSpace=wrap;html=1;" vertex="1" parent="3V-cjrJp8K7K4NnzKLsq-15">
          <mxGeometry y="52" width="140" height="26" as="geometry" />
        </mxCell>
        <mxCell id="3V-cjrJp8K7K4NnzKLsq-18" value="+ field: type" style="text;strokeColor=none;fillColor=none;align=left;verticalAlign=top;spacingLeft=4;spacingRight=4;overflow=hidden;rotatable=0;points=[[0,0.5],[1,0.5]];portConstraint=eastwest;whiteSpace=wrap;html=1;" vertex="1" parent="3V-cjrJp8K7K4NnzKLsq-15">
          <mxGeometry y="78" width="140" height="26" as="geometry" />
        </mxCell>
        <mxCell id="3V-cjrJp8K7K4NnzKLsq-19" value="Extends" style="endArrow=block;endSize=16;endFill=0;html=1;rounded=0;entryX=1;entryY=0.5;entryDx=0;entryDy=0;exitX=0;exitY=0.5;exitDx=0;exitDy=0;" edge="1" parent="1" source="3V-cjrJp8K7K4NnzKLsq-20" target="3V-cjrJp8K7K4NnzKLsq-9">
          <mxGeometry y="10" width="160" relative="1" as="geometry">
            <mxPoint x="552" y="354" as="sourcePoint" />
            <mxPoint x="472" y="374" as="targetPoint" />
            <mxPoint as="offset" />
          </mxGeometry>
        </mxCell>
        <mxCell id="3V-cjrJp8K7K4NnzKLsq-20" value="Customer" style="swimlane;fontStyle=0;childLayout=stackLayout;horizontal=1;startSize=30;fillColor=none;horizontalStack=0;resizeParent=1;resizeParentMax=0;resizeLast=0;collapsible=1;marginBottom=0;whiteSpace=wrap;html=1;" vertex="1" collapsed="1" parent="1">
          <mxGeometry x="552" y="364" width="70" height="30" as="geometry">
            <mxRectangle x="520" y="100" width="140" height="108" as="alternateBounds" />
          </mxGeometry>
        </mxCell>
        <mxCell id="3V-cjrJp8K7K4NnzKLsq-21" value="+ field: type" style="text;strokeColor=none;fillColor=none;align=left;verticalAlign=top;spacingLeft=4;spacingRight=4;overflow=hidden;rotatable=0;points=[[0,0.5],[1,0.5]];portConstraint=eastwest;whiteSpace=wrap;html=1;" vertex="1" parent="3V-cjrJp8K7K4NnzKLsq-20">
          <mxGeometry y="30" width="140" height="26" as="geometry" />
        </mxCell>
        <mxCell id="3V-cjrJp8K7K4NnzKLsq-22" value="+ field: type" style="text;strokeColor=none;fillColor=none;align=left;verticalAlign=top;spacingLeft=4;spacingRight=4;overflow=hidden;rotatable=0;points=[[0,0.5],[1,0.5]];portConstraint=eastwest;whiteSpace=wrap;html=1;" vertex="1" parent="3V-cjrJp8K7K4NnzKLsq-20">
          <mxGeometry y="56" width="140" height="26" as="geometry" />
        </mxCell>
        <mxCell id="3V-cjrJp8K7K4NnzKLsq-23" value="+ field: type" style="text;strokeColor=none;fillColor=none;align=left;verticalAlign=top;spacingLeft=4;spacingRight=4;overflow=hidden;rotatable=0;points=[[0,0.5],[1,0.5]];portConstraint=eastwest;whiteSpace=wrap;html=1;" vertex="1" parent="3V-cjrJp8K7K4NnzKLsq-20">
          <mxGeometry y="82" width="140" height="26" as="geometry" />
        </mxCell>
        <mxCell id="3V-cjrJp8K7K4NnzKLsq-24" value="Booking" style="swimlane;fontStyle=0;childLayout=stackLayout;horizontal=1;startSize=26;fillColor=none;horizontalStack=0;resizeParent=1;resizeParentMax=0;resizeLast=0;collapsible=1;marginBottom=0;whiteSpace=wrap;html=1;" vertex="1" collapsed="1" parent="1">
          <mxGeometry x="552" y="474" width="80" height="30" as="geometry">
            <mxRectangle x="660" y="100" width="140" height="104" as="alternateBounds" />
          </mxGeometry>
        </mxCell>
        <mxCell id="3V-cjrJp8K7K4NnzKLsq-25" value="+ field: type" style="text;strokeColor=none;fillColor=none;align=left;verticalAlign=top;spacingLeft=4;spacingRight=4;overflow=hidden;rotatable=0;points=[[0,0.5],[1,0.5]];portConstraint=eastwest;whiteSpace=wrap;html=1;" vertex="1" parent="3V-cjrJp8K7K4NnzKLsq-24">
          <mxGeometry y="26" width="140" height="26" as="geometry" />
        </mxCell>
        <mxCell id="3V-cjrJp8K7K4NnzKLsq-26" value="+ field: type" style="text;strokeColor=none;fillColor=none;align=left;verticalAlign=top;spacingLeft=4;spacingRight=4;overflow=hidden;rotatable=0;points=[[0,0.5],[1,0.5]];portConstraint=eastwest;whiteSpace=wrap;html=1;" vertex="1" parent="3V-cjrJp8K7K4NnzKLsq-24">
          <mxGeometry y="52" width="140" height="26" as="geometry" />
        </mxCell>
        <mxCell id="3V-cjrJp8K7K4NnzKLsq-27" value="+ field: type" style="text;strokeColor=none;fillColor=none;align=left;verticalAlign=top;spacingLeft=4;spacingRight=4;overflow=hidden;rotatable=0;points=[[0,0.5],[1,0.5]];portConstraint=eastwest;whiteSpace=wrap;html=1;" vertex="1" parent="3V-cjrJp8K7K4NnzKLsq-24">
          <mxGeometry y="78" width="140" height="26" as="geometry" />
        </mxCell>
        <mxCell id="3V-cjrJp8K7K4NnzKLsq-28" value="" style="endArrow=open;endFill=1;endSize=12;html=1;rounded=0;entryX=0.5;entryY=0;entryDx=0;entryDy=0;" edge="1" parent="1" target="3V-cjrJp8K7K4NnzKLsq-24">
          <mxGeometry width="160" relative="1" as="geometry">
            <mxPoint x="592" y="394" as="sourcePoint" />
            <mxPoint x="712" y="379" as="targetPoint" />
          </mxGeometry>
        </mxCell>
        <mxCell id="3V-cjrJp8K7K4NnzKLsq-29" value="creates" style="text;html=1;strokeColor=none;fillColor=none;align=center;verticalAlign=middle;whiteSpace=wrap;rounded=0;" vertex="1" parent="1">
          <mxGeometry x="598" y="424" width="40" height="20" as="geometry" />
        </mxCell>
        <mxCell id="3V-cjrJp8K7K4NnzKLsq-30" value="ViewSeat" style="swimlane;fontStyle=0;childLayout=stackLayout;horizontal=1;startSize=26;fillColor=none;horizontalStack=0;resizeParent=1;resizeParentMax=0;resizeLast=0;collapsible=1;marginBottom=0;whiteSpace=wrap;html=1;" vertex="1" collapsed="1" parent="1">
          <mxGeometry x="552" y="564" width="80" height="30" as="geometry">
            <mxRectangle x="660" y="100" width="140" height="104" as="alternateBounds" />
          </mxGeometry>
        </mxCell>
        <mxCell id="3V-cjrJp8K7K4NnzKLsq-31" value="+ field: type" style="text;strokeColor=none;fillColor=none;align=left;verticalAlign=top;spacingLeft=4;spacingRight=4;overflow=hidden;rotatable=0;points=[[0,0.5],[1,0.5]];portConstraint=eastwest;whiteSpace=wrap;html=1;" vertex="1" parent="3V-cjrJp8K7K4NnzKLsq-30">
          <mxGeometry y="26" width="140" height="26" as="geometry" />
        </mxCell>
        <mxCell id="3V-cjrJp8K7K4NnzKLsq-32" value="+ field: type" style="text;strokeColor=none;fillColor=none;align=left;verticalAlign=top;spacingLeft=4;spacingRight=4;overflow=hidden;rotatable=0;points=[[0,0.5],[1,0.5]];portConstraint=eastwest;whiteSpace=wrap;html=1;" vertex="1" parent="3V-cjrJp8K7K4NnzKLsq-30">
          <mxGeometry y="52" width="140" height="26" as="geometry" />
        </mxCell>
        <mxCell id="3V-cjrJp8K7K4NnzKLsq-33" value="+ field: type" style="text;strokeColor=none;fillColor=none;align=left;verticalAlign=top;spacingLeft=4;spacingRight=4;overflow=hidden;rotatable=0;points=[[0,0.5],[1,0.5]];portConstraint=eastwest;whiteSpace=wrap;html=1;" vertex="1" parent="3V-cjrJp8K7K4NnzKLsq-30">
          <mxGeometry y="78" width="140" height="26" as="geometry" />
        </mxCell>
        <mxCell id="3V-cjrJp8K7K4NnzKLsq-34" value="Show" style="swimlane;fontStyle=0;childLayout=stackLayout;horizontal=1;startSize=26;fillColor=none;horizontalStack=0;resizeParent=1;resizeParentMax=0;resizeLast=0;collapsible=1;marginBottom=0;whiteSpace=wrap;html=1;" vertex="1" collapsed="1" parent="1">
          <mxGeometry x="392" y="524" width="80" height="30" as="geometry">
            <mxRectangle x="660" y="100" width="140" height="104" as="alternateBounds" />
          </mxGeometry>
        </mxCell>
        <mxCell id="3V-cjrJp8K7K4NnzKLsq-35" value="+ field: type" style="text;strokeColor=none;fillColor=none;align=left;verticalAlign=top;spacingLeft=4;spacingRight=4;overflow=hidden;rotatable=0;points=[[0,0.5],[1,0.5]];portConstraint=eastwest;whiteSpace=wrap;html=1;" vertex="1" parent="3V-cjrJp8K7K4NnzKLsq-34">
          <mxGeometry y="26" width="140" height="26" as="geometry" />
        </mxCell>
        <mxCell id="3V-cjrJp8K7K4NnzKLsq-36" value="+ field: type" style="text;strokeColor=none;fillColor=none;align=left;verticalAlign=top;spacingLeft=4;spacingRight=4;overflow=hidden;rotatable=0;points=[[0,0.5],[1,0.5]];portConstraint=eastwest;whiteSpace=wrap;html=1;" vertex="1" parent="3V-cjrJp8K7K4NnzKLsq-34">
          <mxGeometry y="52" width="140" height="26" as="geometry" />
        </mxCell>
        <mxCell id="3V-cjrJp8K7K4NnzKLsq-37" value="+ field: type" style="text;strokeColor=none;fillColor=none;align=left;verticalAlign=top;spacingLeft=4;spacingRight=4;overflow=hidden;rotatable=0;points=[[0,0.5],[1,0.5]];portConstraint=eastwest;whiteSpace=wrap;html=1;" vertex="1" parent="3V-cjrJp8K7K4NnzKLsq-34">
          <mxGeometry y="78" width="140" height="26" as="geometry" />
        </mxCell>
        <mxCell id="3V-cjrJp8K7K4NnzKLsq-38" value="" style="endArrow=open;endFill=1;endSize=12;html=1;rounded=0;entryX=1;entryY=0.5;entryDx=0;entryDy=0;exitX=0;exitY=0.5;exitDx=0;exitDy=0;" edge="1" parent="1" source="3V-cjrJp8K7K4NnzKLsq-24" target="3V-cjrJp8K7K4NnzKLsq-34">
          <mxGeometry width="160" relative="1" as="geometry">
            <mxPoint x="512" y="474" as="sourcePoint" />
            <mxPoint x="512" y="554" as="targetPoint" />
          </mxGeometry>
        </mxCell>
        <mxCell id="3V-cjrJp8K7K4NnzKLsq-39" value="has" style="text;html=1;strokeColor=none;fillColor=none;align=center;verticalAlign=middle;whiteSpace=wrap;rounded=0;" vertex="1" parent="1">
          <mxGeometry x="472" y="494" width="40" height="20" as="geometry" />
        </mxCell>
        <mxCell id="3V-cjrJp8K7K4NnzKLsq-40" value="" style="endArrow=diamondThin;endFill=1;endSize=24;html=1;rounded=0;exitX=0.5;exitY=0;exitDx=0;exitDy=0;entryX=0.5;entryY=1;entryDx=0;entryDy=0;" edge="1" parent="1" source="3V-cjrJp8K7K4NnzKLsq-30" target="3V-cjrJp8K7K4NnzKLsq-24">
          <mxGeometry width="160" relative="1" as="geometry">
            <mxPoint x="598" y="534" as="sourcePoint" />
            <mxPoint x="758" y="534" as="targetPoint" />
          </mxGeometry>
        </mxCell>
        <mxCell id="3V-cjrJp8K7K4NnzKLsq-45" value="CinemaHallSeat" style="swimlane;fontStyle=0;childLayout=stackLayout;horizontal=1;startSize=26;fillColor=none;horizontalStack=0;resizeParent=1;resizeParentMax=0;resizeLast=0;collapsible=1;marginBottom=0;whiteSpace=wrap;html=1;" vertex="1" collapsed="1" parent="1">
          <mxGeometry x="537" y="664" width="100" height="30" as="geometry">
            <mxRectangle x="660" y="100" width="140" height="104" as="alternateBounds" />
          </mxGeometry>
        </mxCell>
        <mxCell id="3V-cjrJp8K7K4NnzKLsq-46" value="+ field: type" style="text;strokeColor=none;fillColor=none;align=left;verticalAlign=top;spacingLeft=4;spacingRight=4;overflow=hidden;rotatable=0;points=[[0,0.5],[1,0.5]];portConstraint=eastwest;whiteSpace=wrap;html=1;" vertex="1" parent="3V-cjrJp8K7K4NnzKLsq-45">
          <mxGeometry y="26" width="140" height="26" as="geometry" />
        </mxCell>
        <mxCell id="3V-cjrJp8K7K4NnzKLsq-47" value="+ field: type" style="text;strokeColor=none;fillColor=none;align=left;verticalAlign=top;spacingLeft=4;spacingRight=4;overflow=hidden;rotatable=0;points=[[0,0.5],[1,0.5]];portConstraint=eastwest;whiteSpace=wrap;html=1;" vertex="1" parent="3V-cjrJp8K7K4NnzKLsq-45">
          <mxGeometry y="52" width="140" height="26" as="geometry" />
        </mxCell>
        <mxCell id="3V-cjrJp8K7K4NnzKLsq-48" value="+ field: type" style="text;strokeColor=none;fillColor=none;align=left;verticalAlign=top;spacingLeft=4;spacingRight=4;overflow=hidden;rotatable=0;points=[[0,0.5],[1,0.5]];portConstraint=eastwest;whiteSpace=wrap;html=1;" vertex="1" parent="3V-cjrJp8K7K4NnzKLsq-45">
          <mxGeometry y="78" width="140" height="26" as="geometry" />
        </mxCell>
        <mxCell id="3V-cjrJp8K7K4NnzKLsq-49" value="Extends" style="endArrow=block;endSize=16;endFill=0;html=1;rounded=0;entryX=0.55;entryY=0;entryDx=0;entryDy=0;exitX=0.5;exitY=1;exitDx=0;exitDy=0;entryPerimeter=0;" edge="1" parent="1" source="3V-cjrJp8K7K4NnzKLsq-30" target="3V-cjrJp8K7K4NnzKLsq-45">
          <mxGeometry y="10" width="160" relative="1" as="geometry">
            <mxPoint x="570" y="554" as="sourcePoint" />
            <mxPoint x="482" y="650" as="targetPoint" />
            <mxPoint as="offset" />
          </mxGeometry>
        </mxCell>
        <mxCell id="3V-cjrJp8K7K4NnzKLsq-50" value="CinemaHall" style="swimlane;fontStyle=0;childLayout=stackLayout;horizontal=1;startSize=26;fillColor=none;horizontalStack=0;resizeParent=1;resizeParentMax=0;resizeLast=0;collapsible=1;marginBottom=0;whiteSpace=wrap;html=1;" vertex="1" collapsed="1" parent="1">
          <mxGeometry x="372" y="664" width="100" height="30" as="geometry">
            <mxRectangle x="660" y="100" width="140" height="104" as="alternateBounds" />
          </mxGeometry>
        </mxCell>
        <mxCell id="3V-cjrJp8K7K4NnzKLsq-51" value="+ field: type" style="text;strokeColor=none;fillColor=none;align=left;verticalAlign=top;spacingLeft=4;spacingRight=4;overflow=hidden;rotatable=0;points=[[0,0.5],[1,0.5]];portConstraint=eastwest;whiteSpace=wrap;html=1;" vertex="1" parent="3V-cjrJp8K7K4NnzKLsq-50">
          <mxGeometry y="26" width="140" height="26" as="geometry" />
        </mxCell>
        <mxCell id="3V-cjrJp8K7K4NnzKLsq-52" value="+ field: type" style="text;strokeColor=none;fillColor=none;align=left;verticalAlign=top;spacingLeft=4;spacingRight=4;overflow=hidden;rotatable=0;points=[[0,0.5],[1,0.5]];portConstraint=eastwest;whiteSpace=wrap;html=1;" vertex="1" parent="3V-cjrJp8K7K4NnzKLsq-50">
          <mxGeometry y="52" width="140" height="26" as="geometry" />
        </mxCell>
        <mxCell id="3V-cjrJp8K7K4NnzKLsq-53" value="+ field: type" style="text;strokeColor=none;fillColor=none;align=left;verticalAlign=top;spacingLeft=4;spacingRight=4;overflow=hidden;rotatable=0;points=[[0,0.5],[1,0.5]];portConstraint=eastwest;whiteSpace=wrap;html=1;" vertex="1" parent="3V-cjrJp8K7K4NnzKLsq-50">
          <mxGeometry y="78" width="140" height="26" as="geometry" />
        </mxCell>
        <mxCell id="3V-cjrJp8K7K4NnzKLsq-54" value="" style="endArrow=diamondThin;endFill=1;endSize=24;html=1;rounded=0;exitX=0;exitY=0.5;exitDx=0;exitDy=0;entryX=1;entryY=0.5;entryDx=0;entryDy=0;" edge="1" parent="1" source="3V-cjrJp8K7K4NnzKLsq-45" target="3V-cjrJp8K7K4NnzKLsq-50">
          <mxGeometry width="160" relative="1" as="geometry">
            <mxPoint x="341.66999999999996" y="694" as="sourcePoint" />
            <mxPoint x="332" y="634" as="targetPoint" />
          </mxGeometry>
        </mxCell>
        <mxCell id="3V-cjrJp8K7K4NnzKLsq-55" value="" style="endArrow=open;endFill=1;endSize=12;html=1;rounded=0;entryX=0.598;entryY=-0.091;entryDx=0;entryDy=0;exitX=0.5;exitY=1;exitDx=0;exitDy=0;entryPerimeter=0;" edge="1" parent="1" source="3V-cjrJp8K7K4NnzKLsq-34" target="3V-cjrJp8K7K4NnzKLsq-50">
          <mxGeometry width="160" relative="1" as="geometry">
            <mxPoint x="562" y="499" as="sourcePoint" />
            <mxPoint x="482" y="549" as="targetPoint" />
          </mxGeometry>
        </mxCell>
        <mxCell id="3V-cjrJp8K7K4NnzKLsq-56" value="plays at" style="text;html=1;strokeColor=none;fillColor=none;align=center;verticalAlign=middle;whiteSpace=wrap;rounded=0;" vertex="1" parent="1">
          <mxGeometry x="432" y="584" width="60" height="20" as="geometry" />
        </mxCell>
        <mxCell id="3V-cjrJp8K7K4NnzKLsq-57" value="Cinema" style="swimlane;fontStyle=0;childLayout=stackLayout;horizontal=1;startSize=26;fillColor=none;horizontalStack=0;resizeParent=1;resizeParentMax=0;resizeLast=0;collapsible=1;marginBottom=0;whiteSpace=wrap;html=1;" vertex="1" collapsed="1" parent="1">
          <mxGeometry x="212" y="664" width="100" height="30" as="geometry">
            <mxRectangle x="660" y="100" width="140" height="104" as="alternateBounds" />
          </mxGeometry>
        </mxCell>
        <mxCell id="3V-cjrJp8K7K4NnzKLsq-58" value="+ field: type" style="text;strokeColor=none;fillColor=none;align=left;verticalAlign=top;spacingLeft=4;spacingRight=4;overflow=hidden;rotatable=0;points=[[0,0.5],[1,0.5]];portConstraint=eastwest;whiteSpace=wrap;html=1;" vertex="1" parent="3V-cjrJp8K7K4NnzKLsq-57">
          <mxGeometry y="26" width="140" height="26" as="geometry" />
        </mxCell>
        <mxCell id="3V-cjrJp8K7K4NnzKLsq-59" value="+ field: type" style="text;strokeColor=none;fillColor=none;align=left;verticalAlign=top;spacingLeft=4;spacingRight=4;overflow=hidden;rotatable=0;points=[[0,0.5],[1,0.5]];portConstraint=eastwest;whiteSpace=wrap;html=1;" vertex="1" parent="3V-cjrJp8K7K4NnzKLsq-57">
          <mxGeometry y="52" width="140" height="26" as="geometry" />
        </mxCell>
        <mxCell id="3V-cjrJp8K7K4NnzKLsq-60" value="+ field: type" style="text;strokeColor=none;fillColor=none;align=left;verticalAlign=top;spacingLeft=4;spacingRight=4;overflow=hidden;rotatable=0;points=[[0,0.5],[1,0.5]];portConstraint=eastwest;whiteSpace=wrap;html=1;" vertex="1" parent="3V-cjrJp8K7K4NnzKLsq-57">
          <mxGeometry y="78" width="140" height="26" as="geometry" />
        </mxCell>
        <mxCell id="3V-cjrJp8K7K4NnzKLsq-61" value="" style="endArrow=diamondThin;endFill=1;endSize=24;html=1;rounded=0;exitX=0;exitY=0.5;exitDx=0;exitDy=0;entryX=1;entryY=0.5;entryDx=0;entryDy=0;" edge="1" parent="1" source="3V-cjrJp8K7K4NnzKLsq-50" target="3V-cjrJp8K7K4NnzKLsq-57">
          <mxGeometry width="160" relative="1" as="geometry">
            <mxPoint x="377" y="734" as="sourcePoint" />
            <mxPoint x="312" y="684" as="targetPoint" />
          </mxGeometry>
        </mxCell>
        <mxCell id="3V-cjrJp8K7K4NnzKLsq-62" value="Movie" style="swimlane;fontStyle=0;childLayout=stackLayout;horizontal=1;startSize=26;fillColor=none;horizontalStack=0;resizeParent=1;resizeParentMax=0;resizeLast=0;collapsible=1;marginBottom=0;whiteSpace=wrap;html=1;" vertex="1" collapsed="1" parent="1">
          <mxGeometry x="232" y="524" width="80" height="30" as="geometry">
            <mxRectangle x="660" y="100" width="140" height="104" as="alternateBounds" />
          </mxGeometry>
        </mxCell>
        <mxCell id="3V-cjrJp8K7K4NnzKLsq-63" value="+ field: type" style="text;strokeColor=none;fillColor=none;align=left;verticalAlign=top;spacingLeft=4;spacingRight=4;overflow=hidden;rotatable=0;points=[[0,0.5],[1,0.5]];portConstraint=eastwest;whiteSpace=wrap;html=1;" vertex="1" parent="3V-cjrJp8K7K4NnzKLsq-62">
          <mxGeometry y="26" width="140" height="26" as="geometry" />
        </mxCell>
        <mxCell id="3V-cjrJp8K7K4NnzKLsq-64" value="+ field: type" style="text;strokeColor=none;fillColor=none;align=left;verticalAlign=top;spacingLeft=4;spacingRight=4;overflow=hidden;rotatable=0;points=[[0,0.5],[1,0.5]];portConstraint=eastwest;whiteSpace=wrap;html=1;" vertex="1" parent="3V-cjrJp8K7K4NnzKLsq-62">
          <mxGeometry y="52" width="140" height="26" as="geometry" />
        </mxCell>
        <mxCell id="3V-cjrJp8K7K4NnzKLsq-65" value="+ field: type" style="text;strokeColor=none;fillColor=none;align=left;verticalAlign=top;spacingLeft=4;spacingRight=4;overflow=hidden;rotatable=0;points=[[0,0.5],[1,0.5]];portConstraint=eastwest;whiteSpace=wrap;html=1;" vertex="1" parent="3V-cjrJp8K7K4NnzKLsq-62">
          <mxGeometry y="78" width="140" height="26" as="geometry" />
        </mxCell>
        <mxCell id="3V-cjrJp8K7K4NnzKLsq-67" value="" style="endArrow=diamondThin;endFill=1;endSize=24;html=1;rounded=0;exitX=0;exitY=0.5;exitDx=0;exitDy=0;entryX=1;entryY=0.5;entryDx=0;entryDy=0;" edge="1" parent="1" source="3V-cjrJp8K7K4NnzKLsq-34" target="3V-cjrJp8K7K4NnzKLsq-62">
          <mxGeometry width="160" relative="1" as="geometry">
            <mxPoint x="372" y="538.67" as="sourcePoint" />
            <mxPoint x="312" y="538.67" as="targetPoint" />
          </mxGeometry>
        </mxCell>
        <mxCell id="3V-cjrJp8K7K4NnzKLsq-68" value="1" style="text;html=1;strokeColor=none;fillColor=none;align=center;verticalAlign=middle;whiteSpace=wrap;rounded=0;" vertex="1" parent="1">
          <mxGeometry x="312" y="654" width="20" height="20" as="geometry" />
        </mxCell>
        <mxCell id="3V-cjrJp8K7K4NnzKLsq-69" value="1...*" style="text;html=1;strokeColor=none;fillColor=none;align=center;verticalAlign=middle;whiteSpace=wrap;rounded=0;" vertex="1" parent="1">
          <mxGeometry x="352" y="654" width="20" height="20" as="geometry" />
        </mxCell>
        <mxCell id="3V-cjrJp8K7K4NnzKLsq-70" value="1" style="text;html=1;strokeColor=none;fillColor=none;align=center;verticalAlign=middle;whiteSpace=wrap;rounded=0;" vertex="1" parent="1">
          <mxGeometry x="472" y="654" width="20" height="20" as="geometry" />
        </mxCell>
        <mxCell id="3V-cjrJp8K7K4NnzKLsq-71" value="*" style="text;html=1;strokeColor=none;fillColor=none;align=center;verticalAlign=middle;whiteSpace=wrap;rounded=0;" vertex="1" parent="1">
          <mxGeometry x="517" y="654" width="20" height="20" as="geometry" />
        </mxCell>
        <mxCell id="3V-cjrJp8K7K4NnzKLsq-72" value="1" style="text;html=1;strokeColor=none;fillColor=none;align=center;verticalAlign=middle;whiteSpace=wrap;rounded=0;" vertex="1" parent="1">
          <mxGeometry x="312" y="514" width="20" height="20" as="geometry" />
        </mxCell>
        <mxCell id="3V-cjrJp8K7K4NnzKLsq-73" value="*" style="text;html=1;strokeColor=none;fillColor=none;align=center;verticalAlign=middle;whiteSpace=wrap;rounded=0;" vertex="1" parent="1">
          <mxGeometry x="372" y="514" width="20" height="20" as="geometry" />
        </mxCell>
      </root>
    </mxGraphModel>
  </diagram>
</mxfile>
